<?xml version="1.0" encoding="utf-8"?>
<!-- Generator: Adobe Illustrator 27.8.1, SVG Export Plug-In . SVG Version: 6.00 Build 0)  -->
<svg version="1.1" id="Capa_1" xmlns="http://www.w3.org/2000/svg" xmlns:xlink="http://www.w3.org/1999/xlink" x="0px" y="0px"
	 viewBox="0 0 1920 1080" style="enable-background:new 0 0 1920 1080;" xml:space="preserve">
<style type="text/css">
	.st0{opacity:0.25;fill:#FFFFFF;}
	.st1{fill:#4E87A0;}
	.st2{fill:#53565A;}
	.st3{fill:#F3F3F3;}
	.st4{fill:url(#SVGID_00000107573314844291304110000008553678449801897888_);}
	.st5{fill:url(#SVGID_00000009563548333058929600000004087061573783106238_);}
</style>
<g>
	<defs>
		<rect id="SVGID_1_" width="1920" height="1080"/>
	</defs>
	<clipPath id="SVGID_00000036235665293823308290000006358894663620067720_">
		<use xlink:href="#SVGID_1_"  style="overflow:visible;"/>
	</clipPath>
	<g style="clip-path:url(#SVGID_00000036235665293823308290000006358894663620067720_);">
		
			<image style="overflow:visible;" width="1024" height="1024" xlink:href="8EAFE3BB.jpg"  transform="matrix(2.1276 0 0 2.1276 0 -508.6585)">
		</image>
	</g>
</g>
<rect class="st0" width="1920" height="1080"/>
<g>
	<g>
		<g>
			<path class="st1" d="M791.9,567.8c0.4-0.4,0.8-0.8,1.3-1.2c9.2-8.8,15.1-19.8,17.5-32.8h-3c-2.1,11-6.9,20.5-14.2,28.3
				c-0.7,0.8-1.6,1.6-2.4,2.5c-1.7,1.7-3.5,3.2-5.5,4.6c-3.4,2.5-7,4.7-10.8,6.5l0.9,2.8c3.7-1.7,7.3-3.8,10.7-6.3
				C788.4,570.9,790.1,569.4,791.9,567.8z"/>
			<path class="st1" d="M789.1,562.5c2.4-2.3,4.6-4.7,6.4-7.3c4.5-6.2,7.6-13.3,9.2-21.3h-3c-0.7,3.2-1.6,6.3-2.8,9.1
				c-2.7,6.6-6.7,12.4-11.9,17.5c-1,0.9-2,1.9-3.1,2.7c-3.4,2.8-7,5.1-10.9,7l0.9,2.8c3.8-1.8,7.4-4.1,10.8-6.7
				C786.2,565.1,787.6,563.8,789.1,562.5z"/>
			<path class="st1" d="M765.9,519.4c0-5.9-1.9-10.7-5.7-14.3c-3.7-3.6-8.5-5.4-14.3-5.4c-5.6,0-10.3,1.8-14.2,5.4
				c-3.9,3.7-5.8,8.4-5.8,14.3c0,5.9,1.9,10.7,5.8,14.3c1.5,1.3,3,2.5,4.7,3.3v-3.1v-0.1c-0.9-0.6-1.8-1.3-2.7-2
				c-3.3-3.1-4.9-7.2-4.9-12.3s1.6-9.1,4.9-12.3c3.3-3.1,7.3-4.6,12.1-4.6c4.9,0,9,1.6,12.3,4.6c3.2,3.1,4.9,7.2,4.9,12.3
				c0,5.1-1.6,9.1-4.9,12.3c-0.8,0.8-1.8,1.6-2.8,2.1v0.1v3.2c1.8-0.8,3.4-2,4.9-3.4C764,530.1,765.9,525.3,765.9,519.4z"/>
			<path class="st1" d="M760.1,519.4c0-4.2-1.3-7.6-4-10.2c-2.7-2.5-6.1-3.9-10.2-3.9c-4,0-7.3,1.3-10.1,3.9
				c-2.8,2.6-4.1,6-4.1,10.2s1.3,7.6,4.1,10.2c0.5,0.5,1.1,1,1.7,1.3h1.8h13.2h1.9c0.6-0.4,1.1-0.9,1.7-1.3
				C758.8,527,760.1,523.6,760.1,519.4z M754,527.5c-1,1-2.2,1.7-3.4,2.2c-1.4,0.6-3,0.9-4.7,0.9c-1.9,0-3.7-0.4-5.4-1.3
				c-1-0.5-1.9-1.1-2.7-1.9c-2.2-2-3.3-4.7-3.3-8.1c0-3.4,1.1-6.1,3.3-8.1c0.8-0.7,1.7-1.3,2.7-1.9c1.6-0.8,3.4-1.3,5.4-1.3
				c1.7,0,3.3,0.3,4.7,0.9c1.3,0.5,2.4,1.3,3.4,2.2c2.1,2,3.2,4.7,3.2,8.1l0,0l0,0C757.3,522.8,756.2,525.5,754,527.5z"/>
			<path d="M751.9,513.3c-1.6-1.6-3.7-2.3-6.1-2.3c-2.3,0-4.4,0.7-6.1,2.3c-1.6,1.6-2.5,3.5-2.5,6.1c0,2.5,0.8,4.5,2.5,6.1
				c1.6,1.6,3.7,2.3,6.1,2.3c2.5,0,4.5-0.7,6.1-2.3c1.6-1.6,2.4-3.5,2.4-6.1C754.3,516.8,753.6,514.8,751.9,513.3z"/>
			<path class="st1" d="M797.4,585.8h1.7l0.5-1.7l1.6-5.2c-2.8,2.5-5.8,4.8-8.9,6.8L797.4,585.8L797.4,585.8z"/>
			<path class="st1" d="M799.3,572.8c-5.7,5.4-11.9,9.7-18.8,13h6.3c5.2-3,10.1-6.6,14.7-10.9c0.6-0.5,1.1-1.1,1.7-1.6l2.2-6.8
				C803.4,568.6,801.4,570.7,799.3,572.8z"/>
			<path class="st1" d="M813.6,533.9c-2.5,13.9-8.5,25.5-18.4,34.9c-1.6,1.5-3.1,2.8-4.7,4.1c-1,0.8-2,1.6-3.1,2.3
				c-3.4,2.3-6.9,4.4-10.7,6.1l0.9,2.8c7.3-3.2,13.9-7.6,19.8-13.3c4.3-4.2,8-8.8,10.9-13.7l7.3-23.2L813.6,533.9L813.6,533.9z"/>
			<path class="st1" d="M782.2,557c-3.3,3.1-6.9,5.6-10.9,7.6l0.9,2.8c3.9-1.9,7.5-4.3,10.9-7.3L782.2,557z"/>
			<path class="st1" d="M781.3,553.9l-0.9-3.2c-0.5,0.5-1,1-1.6,1.6c-2.8,2.7-5.9,4.9-9.2,6.8l0.9,2.8c3.7-2,7.2-4.5,10.4-7.6
				C781,554.2,781.1,553.9,781.3,553.9z"/>
			<path class="st1" d="M779.5,547.3l-1-3.4c-1.1,1.5-2.4,2.9-3.7,4.2c-2.1,2-4.4,3.8-6.9,5.3l0.9,2.8c2.9-1.6,5.5-3.7,8-6.1
				C777.7,549.3,778.6,548.3,779.5,547.3z"/>
			<path class="st1" d="M777.4,540.3l-1.1-3.9c-1.5,2.8-3.4,5.3-5.8,7.6c-1.5,1.3-3,2.6-4.6,3.7l0.9,2.8c2-1.3,4-2.8,5.7-4.5
				C774.4,544.3,776,542.3,777.4,540.3z"/>
			<path class="st1" d="M774.4,533.9h-3.3c-1.3,2.2-2.8,4.2-4.6,6.1c-0.7,0.7-1.5,1.3-2.3,2l0.9,2.9c1.2-0.8,2.3-1.8,3.4-2.8
				C770.9,539.6,772.9,536.9,774.4,533.9z"/>
			<path class="st1" d="M767.6,533.9c2.7-4,4-8.8,4-14.5c0-7.6-2.5-13.8-7.3-18.4c-4.9-4.6-11-7-18.4-7c-7.2,0-13.3,2.3-18.3,7
				c-4.9,4.6-7.5,10.9-7.5,18.4c0,7.6,2.5,13.8,7.5,18.4c2.6,2.5,5.5,4.3,8.8,5.4v-3.1c-2.5-1-4.7-2.5-6.7-4.4
				c-4.4-4.1-6.6-9.6-6.6-16.4c0-6.8,2.2-12.2,6.6-16.4c4.4-4.1,9.8-6.2,16.2-6.2c6.6,0,12.1,2.1,16.4,6.2c4.3,4.1,6.5,9.6,6.5,16.4
				c0,5.8-1.6,10.6-4.7,14.5c-0.5,0.7-1.1,1.3-1.8,1.9c-0.1,0.1-0.1,0.1-0.1,0.1c-2,1.9-4.3,3.4-6.8,4.3v3.1c2.8-1,5.4-2.5,7.7-4.4
				c0.4-0.4,0.8-0.7,1.2-1C765.6,536.6,766.7,535.3,767.6,533.9z"/>
			<rect x="739.3" y="533.9" width="13.2" height="52"/>
		</g>
		<g>
			<g>
				<path d="M840.6,565v-3.3h4.3v-24.5h-4.3v-3.3h12.1c4.1,0,7.3,1,9.5,3.1c2.2,2.1,3.4,5.3,3.4,9.6v5.8c0,4.3-1.1,7.6-3.4,9.6
					c-2.2,2-5.4,3.1-9.5,3.1L840.6,565L840.6,565z M848.8,561.7h4c3,0,5.3-0.7,6.8-2.2c1.6-1.5,2.3-3.7,2.3-6.9v-6.1
					c0-3.2-0.7-5.5-2.3-6.9c-1.6-1.5-3.8-2.2-6.8-2.2h-4V561.7z"/>
				<path d="M871.4,565v-21.7h3.4v2.7h0.6c0.4-0.9,1-1.6,1.8-2.1c0.8-0.4,1.9-0.7,3.1-0.7h2.5v3.2h-2.8c-1.6,0-2.8,0.4-3.8,1.3
					c-1,0.9-1.5,2.2-1.5,4.1v13.3h-3.4V565z"/>
				<path d="M886.6,565c-0.8,0-1.6-0.3-2.2-0.8c-0.6-0.5-0.9-1.3-0.9-2.2c0-0.9,0.3-1.6,0.9-2.2c0.6-0.6,1.3-0.8,2.2-0.8
					s1.6,0.3,2.2,0.8c0.6,0.6,0.8,1.3,0.8,2.2c0,0.9-0.3,1.6-0.8,2.2C888.2,564.7,887.5,565,886.6,565z"/>
				<path d="M907.4,565v-31.2h3.7V565H907.4z"/>
				<path d="M926.4,565.6c-2.7,0-4.9-0.6-6.8-1.9c-1.9-1.3-3-3.2-3.4-5.9l3.3-0.7c0.2,1.4,0.7,2.5,1.3,3.4c0.7,0.8,1.5,1.3,2.5,1.7
					c1,0.4,2,0.5,3.1,0.5c1.6,0,2.9-0.3,3.9-1c0.9-0.7,1.4-1.5,1.4-2.6s-0.4-1.9-1.3-2.4c-0.9-0.4-2.1-0.8-3.7-1.1l-1.8-0.3
					c-1.3-0.2-2.7-0.6-3.8-1.1s-2.1-1.2-2.8-2c-0.7-0.8-1-1.9-1-3.2c0-1.9,0.7-3.5,2.2-4.6c1.5-1.1,3.5-1.6,6-1.6
					c2.5,0,4.4,0.6,6,1.7c1.5,1.1,2.5,2.7,3,4.7l-3.3,0.8c-0.3-1.6-0.9-2.7-1.9-3.3c-1-0.6-2.2-1-3.7-1c-1.5,0-2.7,0.3-3.5,0.8
					s-1.3,1.3-1.3,2.5c0,1,0.4,1.8,1.3,2.3c0.8,0.5,1.9,0.8,3.3,1.1l1.8,0.3c1.6,0.3,2.9,0.6,4.2,1.1c1.3,0.4,2.2,1.1,2.9,2
					c0.7,0.8,1.1,2,1.1,3.4c0,2.1-0.8,3.7-2.4,4.9C931.2,565.1,929,565.6,926.4,565.6z"/>
				<path d="M940.6,565v-21.7h3.4v2.7h0.6c0.4-0.9,1-1.6,1.8-2.1c0.8-0.4,1.9-0.7,3.1-0.7h2.5v3.2h-2.8c-1.6,0-2.8,0.4-3.8,1.3
					c-1,0.9-1.5,2.2-1.5,4.1v13.3h-3.4V565z"/>
				<path d="M963.4,565.6c-1.5,0-2.9-0.3-4.1-0.8c-1.3-0.5-2.2-1.3-2.9-2.3s-1-2.2-1-3.7c0-1.5,0.4-2.7,1-3.7c0.7-1,1.7-1.7,2.9-2.2
					c1.3-0.5,2.6-0.7,4.2-0.7h7.3v-1.6c0-1.6-0.4-2.8-1.3-3.7c-0.9-0.9-2.2-1.3-4-1.3c-1.7,0-3.1,0.4-4.1,1.3c-1,0.8-1.6,2-2,3.4
					l-3.3-1c0.4-1.2,0.9-2.3,1.7-3.3c0.7-1,1.8-1.8,3.1-2.4c1.3-0.6,2.8-0.9,4.6-0.9c2.8,0,4.9,0.7,6.5,2.2c1.6,1.4,2.3,3.4,2.3,6.1
					v9.9c0,0.9,0.4,1.3,1.3,1.3h2v3h-3.1c-1,0-1.8-0.3-2.3-0.8c-0.6-0.5-0.9-1.3-0.9-2.2v-0.2h-0.5c-0.3,0.6-0.7,1.1-1.3,1.8
					c-0.5,0.6-1.3,1.1-2.2,1.5C966.2,565.4,964.9,565.6,963.4,565.6z M963.8,562.6c2.1,0,3.7-0.6,5.1-1.9c1.3-1.3,1.9-3,1.9-5.2
					v-0.5h-7.3c-1.3,0-2.5,0.3-3.4,0.9c-0.9,0.6-1.3,1.5-1.3,2.8c0,1.2,0.5,2.2,1.4,2.8C961.1,562.3,962.4,562.6,963.8,562.6z"/>
				<path d="M991.5,565.6c-2.2,0-4.1-0.5-5.8-1.4s-3-2.2-3.9-4c-0.9-1.7-1.3-3.7-1.3-5.8v-0.5c0-2.2,0.4-4.2,1.3-5.9s2.2-3,3.8-4
					c1.6-0.9,3.5-1.4,5.6-1.4c2,0,3.9,0.4,5.4,1.3c1.6,0.9,2.8,2.1,3.7,3.7c0.9,1.6,1.3,3.5,1.3,5.7v1.6h-17.8
					c0.1,2.3,0.8,4.2,2.2,5.5c1.4,1.3,3.2,2,5.3,2c1.9,0,3.3-0.4,4.3-1.3c1-0.8,1.8-1.9,2.3-3.1l3,1.5c-0.4,0.9-1,1.8-1.9,2.8
					s-1.8,1.7-3.1,2.3C995,565.3,993.4,565.6,991.5,565.6z M984,552.1h14.2c-0.1-2-0.8-3.6-2.1-4.7c-1.3-1.1-2.9-1.7-4.9-1.7
					c-2,0-3.7,0.6-4.9,1.7C985.1,548.5,984.3,550.1,984,552.1z"/>
				<path d="M1007.3,565v-31.2h3.5V565H1007.3z"/>
				<path d="M1036.5,565l-9.4-31.2h3.9l8.5,28.9h0.6l8.5-28.9h3.9l-9.4,31.2H1036.5z"/>
				<path d="M1058.9,539.9c-0.7,0-1.4-0.3-1.9-0.7c-0.5-0.5-0.8-1.1-0.8-1.9c0-0.8,0.3-1.5,0.8-1.9c0.5-0.5,1.1-0.7,1.9-0.7
					c0.7,0,1.4,0.3,1.9,0.7c0.5,0.5,0.7,1.1,0.7,1.9c0,0.7-0.3,1.4-0.7,1.9C1060.2,539.6,1059.6,539.9,1058.9,539.9z M1057.1,565
					v-21.7h3.5V565H1057.1z"/>
				<path d="M1067.4,565v-31.2h3.5V565H1067.4z"/>
				<path d="M1077.6,565v-31.2h3.5V565H1077.6z"/>
				<path d="M1094.7,565.6c-1.5,0-2.9-0.3-4.1-0.8c-1.3-0.5-2.2-1.3-2.9-2.3s-1-2.2-1-3.7c0-1.5,0.4-2.7,1-3.7
					c0.7-1,1.7-1.7,2.9-2.2c1.3-0.5,2.6-0.7,4.2-0.7h7.3v-1.6c0-1.6-0.4-2.8-1.3-3.7c-0.9-0.9-2.2-1.3-4-1.3c-1.7,0-3.1,0.4-4.1,1.3
					c-1,0.8-1.6,2-2,3.4l-3.3-1c0.4-1.2,0.9-2.3,1.7-3.3c0.7-1,1.8-1.8,3.1-2.4c1.3-0.6,2.8-0.9,4.6-0.9c2.8,0,4.9,0.7,6.5,2.2
					c1.6,1.4,2.3,3.4,2.3,6.1v9.9c0,0.9,0.4,1.3,1.3,1.3h2v3h-3.1c-1,0-1.8-0.3-2.3-0.8c-0.6-0.5-0.9-1.3-0.9-2.2v-0.2h-0.5
					c-0.3,0.6-0.7,1.1-1.3,1.8c-0.5,0.6-1.3,1.1-2.2,1.5C1097.4,565.4,1096.2,565.6,1094.7,565.6z M1095.1,562.6
					c2.1,0,3.7-0.6,5.1-1.9c1.3-1.3,1.9-3,1.9-5.2v-0.5h-7.2c-1.3,0-2.5,0.3-3.4,0.9s-1.3,1.5-1.3,2.8c0,1.2,0.5,2.2,1.4,2.8
					C1092.4,562.3,1093.6,562.6,1095.1,562.6z"/>
				<path d="M1113.3,565v-21.7h3.4v2.7h0.6c0.4-0.9,1-1.6,1.8-2.1c0.8-0.4,1.9-0.7,3.1-0.7h2.5v3.2h-2.8c-1.6,0-2.8,0.4-3.8,1.3
					c-1,0.9-1.5,2.2-1.5,4.1v13.3h-3.4V565z"/>
				<path d="M1129.5,565v-21.7h3.4v2.7h0.6c0.4-0.9,1-1.6,1.8-2.1c0.8-0.4,1.9-0.7,3.1-0.7h2.5v3.2h-2.8c-1.6,0-2.8,0.4-3.8,1.3
					c-1,0.9-1.5,2.2-1.5,4.1v13.3h-3.4V565z"/>
				<path d="M1155.3,565.6c-2.2,0-4.1-0.5-5.8-1.4c-1.6-0.9-3-2.2-3.9-4c-0.9-1.7-1.3-3.7-1.3-5.8v-0.5c0-2.2,0.4-4.2,1.3-5.9
					c0.9-1.7,2.2-3,3.8-4c1.6-0.9,3.5-1.4,5.6-1.4c2,0,3.9,0.4,5.4,1.3c1.6,0.9,2.8,2.1,3.7,3.7c0.9,1.6,1.3,3.5,1.3,5.7v1.6h-17.8
					c0.1,2.3,0.8,4.2,2.2,5.5c1.4,1.3,3.2,2,5.3,2c1.9,0,3.3-0.4,4.3-1.3c1-0.8,1.8-1.9,2.3-3.1l3,1.5c-0.4,0.9-1,1.8-1.9,2.8
					s-1.8,1.7-3.1,2.3C1158.9,565.3,1157.3,565.6,1155.3,565.6z M1147.9,552.1h14.2c-0.1-2-0.8-3.6-2.1-4.7
					c-1.3-1.1-2.9-1.7-4.9-1.7c-2,0-3.7,0.6-4.9,1.7C1148.9,548.5,1148.2,550.1,1147.9,552.1z"/>
				<path d="M1177.9,565.6c-1.5,0-2.9-0.3-4.1-0.8c-1.3-0.5-2.2-1.3-2.9-2.3s-1-2.2-1-3.7c0-1.5,0.4-2.7,1-3.7
					c0.7-1,1.7-1.7,2.9-2.2c1.3-0.5,2.6-0.7,4.2-0.7h7.3v-1.6c0-1.6-0.4-2.8-1.3-3.7c-0.9-0.9-2.2-1.3-4-1.3c-1.7,0-3.1,0.4-4.1,1.3
					c-1,0.8-1.6,2-2,3.4l-3.3-1c0.4-1.2,0.9-2.3,1.7-3.3c0.7-1,1.8-1.8,3.1-2.4c1.3-0.6,2.8-0.9,4.6-0.9c2.8,0,4.9,0.7,6.5,2.2
					c1.6,1.4,2.3,3.4,2.3,6.1v9.9c0,0.9,0.4,1.3,1.3,1.3h2v3h-3.1c-1,0-1.8-0.3-2.3-0.8c-0.6-0.5-0.9-1.3-0.9-2.2v-0.2h-0.5
					c-0.3,0.6-0.7,1.1-1.3,1.8c-0.5,0.6-1.3,1.1-2.2,1.5C1180.7,565.4,1179.5,565.6,1177.9,565.6z M1178.3,562.6
					c2.1,0,3.7-0.6,5.1-1.9c1.3-1.3,1.9-3,1.9-5.2v-0.5h-7.2c-1.3,0-2.5,0.3-3.4,0.9s-1.3,1.5-1.3,2.8c0,1.2,0.5,2.2,1.4,2.8
					C1175.6,562.3,1176.8,562.6,1178.3,562.6z"/>
				<path d="M1196.5,565v-31.2h3.5V565H1196.5z"/>
			</g>
			<g>
				<path class="st2" d="M840.8,585.8v-10.4h4.1c0.7,0,1.2,0.1,1.7,0.3c0.5,0.2,0.9,0.5,1.1,0.9c0.3,0.4,0.4,0.9,0.4,1.5v0.1
					c0,0.7-0.1,1.3-0.5,1.6c-0.4,0.4-0.7,0.7-1.2,0.8v0.1c0.4,0,0.6,0.1,0.9,0.3c0.2,0.2,0.4,0.5,0.4,1v3.5h-0.9v-3.4
					c0-0.3-0.1-0.6-0.3-0.7c-0.1-0.1-0.4-0.3-0.8-0.3h-4v4.4L840.8,585.8L840.8,585.8z M841.7,580.6h3c0.7,0,1.3-0.1,1.8-0.5
					c0.4-0.4,0.6-0.9,0.6-1.6v-0.1c0-0.7-0.2-1.2-0.6-1.6c-0.4-0.4-1-0.5-1.8-0.5h-3V580.6L841.7,580.6z"/>
				<path class="st2" d="M854.9,585.8l3.4-10.4h1.7l3.4,10.4h-1l-0.9-2.8h-4.7l-0.9,2.8H854.9z M857.1,582.2h4.2l-2-6.2h-0.1
					L857.1,582.2z"/>
				<path class="st2" d="M870.2,585.8V585h1.5v-8.7h-1.5v-0.8h4c1.3,0,2.4,0.4,3.1,1s1.1,1.8,1.1,3.2v1.9c0,1.5-0.4,2.5-1.1,3.2
					c-0.7,0.7-1.8,1-3.1,1L870.2,585.8L870.2,585.8z M872.6,585h1.5c1.1,0,1.9-0.3,2.5-0.8c0.6-0.5,0.8-1.3,0.8-2.5v-2
					c0-1.2-0.3-2-0.8-2.5c-0.6-0.5-1.4-0.8-2.5-0.8h-1.5V585z"/>
				<path class="st2" d="M886.1,585.8v-10.4h0.9v10.4H886.1z"/>
				<path class="st2" d="M899,586c-1.2,0-2.2-0.4-2.9-1c-0.7-0.7-1-1.8-1-3.1v-2.3c0-1.3,0.4-2.5,1-3.1s1.7-1,2.9-1s2.2,0.4,2.9,1
					c0.7,0.7,1,1.8,1,3.1v2.3c0,1.3-0.4,2.5-1,3.1C901.1,585.7,900.2,586,899,586z M899,585.1c1,0,1.7-0.3,2.2-0.9s0.8-1.4,0.8-2.5
					v-2.4c0-1-0.3-1.9-0.8-2.5c-0.5-0.6-1.3-0.9-2.2-0.9c-1,0-1.7,0.3-2.2,0.9s-0.8,1.4-0.8,2.5v2.4c0,1,0.3,1.9,0.8,2.5
					C897.2,584.9,898,585.1,899,585.1z"/>
				<path class="st2" d="M910.7,585.8v-10.4h0.9v9.6h5.5v0.8H910.7z"/>
				<path class="st2" d="M927.9,586c-1.2,0-2.2-0.4-2.9-1c-0.7-0.7-1-1.8-1-3.1v-2.3c0-1.3,0.4-2.5,1-3.1s1.7-1,2.9-1
					c1.3,0,2.2,0.4,2.9,1c0.7,0.7,1,1.8,1,3.1v2.3c0,1.3-0.4,2.5-1,3.1C930.1,585.7,929.2,586,927.9,586z M927.9,585.1
					c1,0,1.7-0.3,2.2-0.9s0.8-1.4,0.8-2.5v-2.4c0-1-0.3-1.9-0.8-2.5c-0.5-0.6-1.3-0.9-2.2-0.9c-1,0-1.7,0.3-2.2,0.9
					s-0.8,1.4-0.8,2.5v2.4c0,1,0.3,1.9,0.8,2.5C926.2,584.9,926.9,585.1,927.9,585.1z"/>
				<path class="st2" d="M943.4,586c-0.8,0-1.5-0.1-2.1-0.5c-0.6-0.3-1-0.8-1.3-1.4c-0.3-0.6-0.5-1.4-0.5-2.3v-2.3
					c0-1.3,0.4-2.5,1.1-3.1c0.7-0.7,1.7-1,2.9-1c1.2,0,2.1,0.4,2.8,1c0.6,0.7,0.9,1.6,0.9,2.7v0.1h-0.9V579c0-0.5-0.1-1-0.3-1.5
					c-0.1-0.4-0.5-0.7-0.9-1s-0.9-0.4-1.6-0.4c-1,0-1.7,0.3-2.2,0.9c-0.5,0.6-0.8,1.4-0.8,2.5v2.4c0,1,0.3,1.9,0.8,2.5
					c0.5,0.6,1.3,0.9,2.2,0.9c0.9,0,1.6-0.3,2.1-0.8s0.7-1.3,0.7-2.2V582h-3.5v-1h4.3v4.8h-0.8v-1.1h-0.1c-0.1,0.2-0.3,0.4-0.5,0.7
					c-0.2,0.2-0.5,0.4-0.8,0.5C944.3,586,943.9,586,943.4,586z"/>
				<path class="st2" d="M954.9,574.6l1-1.7h1.1l-1.2,1.7H954.9z M955.1,585.8v-10.4h0.9v10.4H955.1z"/>
				<path class="st2" d="M963.4,585.8l3.4-10.4h1.7l3.4,10.4h-1l-0.9-2.8h-4.7l-0.9,2.8H963.4z M965.5,582.2h4.2l-2-6.2h-0.1
					L965.5,582.2z"/>
				<path class="st2" d="M988.5,585.8v-10.4h0.9v10.4H988.5z"/>
				<path class="st2" d="M997.6,585.8v-10.4h1.9l4.3,9.9h0.1v-9.9h0.9v10.4h-1.9l-4.3-9.9h-0.1v9.9H997.6z"/>
				<path class="st2" d="M1015.6,585.8v-9.5h-3.4v-0.8h7.9v0.8h-3.4v9.5H1015.6z"/>
				<path class="st2" d="M1027.3,585.8v-10.4h6.3v0.8h-5.3v3.9h4.9v0.8h-4.9v3.9h5.4v0.8L1027.3,585.8L1027.3,585.8z"/>
				<path class="st2" d="M1041.3,585.8v-10.4h4.1c0.7,0,1.2,0.1,1.7,0.3c0.5,0.2,0.9,0.5,1.1,0.9c0.3,0.4,0.4,0.9,0.4,1.5v0.1
					c0,0.7-0.1,1.3-0.5,1.6c-0.4,0.4-0.7,0.7-1.2,0.8v0.1c0.4,0,0.6,0.1,0.9,0.3c0.2,0.2,0.4,0.5,0.4,1v3.5h-0.9v-3.4
					c0-0.3-0.1-0.6-0.3-0.7c-0.1-0.1-0.4-0.3-0.8-0.3h-4v4.4L1041.3,585.8L1041.3,585.8z M1042.3,580.6h3c0.7,0,1.3-0.1,1.8-0.5
					c0.4-0.4,0.6-0.9,0.6-1.6v-0.1c0-0.7-0.2-1.2-0.6-1.6c-0.4-0.4-1-0.5-1.8-0.5h-3V580.6L1042.3,580.6z"/>
				<path class="st2" d="M1058.7,585.8l-3.3-10.4h1l3.1,9.9h0.1l3.1-9.9h1l-3.3,10.4H1058.7z"/>
				<path class="st2" d="M1071,585.8v-10.4h6.3v0.8h-5.3v3.9h4.9v0.8h-4.9v3.9h5.4v0.8L1071,585.8L1071,585.8z"/>
				<path class="st2" d="M1085.1,585.8v-10.4h1.9l4.3,9.9h0.1v-9.9h0.9v10.4h-1.9l-4.3-9.9h-0.1v9.9H1085.1z"/>
				<path class="st2" d="M1104.2,586c-1.2,0-2.2-0.4-2.9-1c-0.7-0.7-1.1-1.8-1.1-3.1v-2.3c0-1.3,0.4-2.5,1.1-3.1
					c0.7-0.7,1.7-1,2.9-1s2.1,0.4,2.8,1c0.6,0.7,1,1.6,1,2.8v0.1h-0.9v-0.1c0-0.8-0.2-1.6-0.7-2.1s-1.1-0.8-2.1-0.8
					s-1.7,0.3-2.2,0.9c-0.5,0.6-0.8,1.4-0.8,2.5v2.4c0,1,0.3,1.9,0.8,2.5c0.5,0.6,1.3,0.9,2.2,0.9c0.9,0,1.6-0.3,2.1-0.8
					c0.4-0.5,0.7-1.3,0.7-2.1v-0.2h0.9v0.1c0,1.1-0.3,2.1-1,2.8C1106.3,585.7,1105.4,586,1104.2,586z"/>
				<path class="st2" d="M1115.7,585.8v-10.4h0.9v10.4H1115.7z"/>
				<path class="st2" d="M1128.4,586c-1.2,0-2.2-0.4-2.9-1c-0.7-0.7-1-1.8-1-3.1v-2.3c0-1.3,0.4-2.5,1-3.1s1.7-1,2.9-1
					c1.3,0,2.2,0.4,2.9,1c0.7,0.7,1,1.8,1,3.1v2.3c0,1.3-0.4,2.5-1,3.1C1130.6,585.7,1129.6,586,1128.4,586z M1128.4,585.1
					c1,0,1.7-0.3,2.2-0.9c0.5-0.6,0.8-1.4,0.8-2.5v-2.4c0-1-0.3-1.9-0.8-2.5c-0.5-0.6-1.3-0.9-2.2-0.9s-1.7,0.3-2.2,0.9
					s-0.8,1.4-0.8,2.5v2.4c0,1,0.3,1.9,0.8,2.5C1126.7,584.9,1127.4,585.1,1128.4,585.1z"/>
				<path class="st2" d="M1140.2,585.8v-10.4h1.9l4.3,9.9h0.1v-9.9h0.9v10.4h-1.9l-4.3-9.9h-0.1v9.9H1140.2z"/>
				<path class="st2" d="M1155.7,585.8v-10.4h0.9v10.4H1155.7z"/>
				<path class="st2" d="M1168.2,586c-0.7,0-1.4-0.1-2-0.4c-0.6-0.3-1-0.7-1.3-1.2s-0.5-1.3-0.5-2v-0.3h0.9v0.3c0,1,0.3,1.7,0.8,2.1
					c0.5,0.4,1.3,0.7,2.1,0.7c0.8,0,1.5-0.2,2-0.6c0.4-0.4,0.7-0.9,0.7-1.6c0-0.4-0.1-0.7-0.3-1s-0.5-0.4-0.8-0.6
					c-0.4-0.1-0.8-0.3-1.3-0.4l-0.9-0.2c-0.6-0.1-1-0.4-1.5-0.6s-0.8-0.5-1-0.9c-0.3-0.4-0.4-0.8-0.4-1.3c0-0.6,0.1-1,0.4-1.5
					c0.3-0.4,0.7-0.7,1.2-1c0.5-0.2,1.1-0.4,1.8-0.4c0.7,0,1.3,0.1,1.9,0.4c0.5,0.2,1,0.6,1.3,1c0.3,0.4,0.5,1,0.5,1.7v0.7h-0.9
					v-0.7c0-0.5-0.1-1-0.4-1.3s-0.6-0.6-1-0.7s-0.8-0.2-1.3-0.2c-0.7,0-1.3,0.1-1.8,0.5c-0.5,0.3-0.7,0.8-0.7,1.4
					c0,0.4,0.1,0.7,0.3,1c0.1,0.3,0.4,0.4,0.8,0.6s0.7,0.3,1.3,0.4l0.9,0.2c0.5,0.1,1,0.3,1.5,0.5s0.8,0.5,1.1,0.9
					c0.3,0.4,0.4,0.8,0.4,1.5s-0.2,1.1-0.4,1.6s-0.7,0.8-1.3,1C1169.6,585.9,1169,586,1168.2,586z"/>
				<path class="st2" d="M1181.7,585.8v-9.5h-3.4v-0.8h7.9v0.8h-3.4v9.5H1181.7z"/>
				<path class="st2" d="M1191.4,585.8l3.4-10.4h1.7l3.4,10.4h-1l-0.9-2.8h-4.7l-0.9,2.8H1191.4z M1193.6,582.2h4.2l-2-6.2h-0.1
					L1193.6,582.2z"/>
			</g>
		</g>
	</g>
</g>
<rect y="945" class="st3" width="1920" height="135"/>
<linearGradient id="SVGID_00000047744659735664384530000012860443939842786467_" gradientUnits="userSpaceOnUse" x1="960" y1="945" x2="960" y2="810">
	<stop  offset="0" style="stop-color:#F3F3F3"/>
	<stop  offset="1" style="stop-color:#F3F3F3;stop-opacity:0"/>
</linearGradient>
<rect y="810" style="fill:url(#SVGID_00000047744659735664384530000012860443939842786467_);" width="1920" height="135"/>
<linearGradient id="SVGID_00000051349580584811225850000009075372062950564005_" gradientUnits="userSpaceOnUse" x1="960" y1="815.0983" x2="960" y2="545.0983" gradientTransform="matrix(-1 0 0 -1 1920 815.0983)">
	<stop  offset="0" style="stop-color:#FFFFFF"/>
	<stop  offset="1" style="stop-color:#FFFFFF;stop-opacity:0"/>
</linearGradient>
<polygon style="fill:url(#SVGID_00000051349580584811225850000009075372062950564005_);" points="0,270 1920,270 1920,0 0,0 "/>
</svg>
