<?xml version="1.0" encoding="utf-8"?>
<!-- Generator: Adobe Illustrator 27.8.1, SVG Export Plug-In . SVG Version: 6.00 Build 0)  -->
<svg version="1.1" id="Capa_1" xmlns="http://www.w3.org/2000/svg" xmlns:xlink="http://www.w3.org/1999/xlink" x="0px" y="0px"
	 viewBox="0 0 1080 207.3" style="enable-background:new 0 0 1080 207.3;" xml:space="preserve">
<style type="text/css">
	.st0{fill:#4E87A0;}
	.st1{fill:#53565A;}
</style>
<g>
	<g>
		<g>
			<path class="st0" d="M161.5,166.3c1-0.9,1.9-1.8,2.9-2.7c20.8-19.9,33.9-44.5,39.3-73.8H197c-4.8,24.8-15.5,46-31.9,63.7
				c-1.7,1.9-3.5,3.7-5.4,5.5c-3.9,3.8-8,7.3-12.3,10.5c-7.6,5.8-15.7,10.6-24.3,14.6l2,6.2c8.5-3.9,16.6-8.6,24.2-14.1
				C153.5,173.1,157.5,169.8,161.5,166.3z"/>
			<path class="st0" d="M155,154.3c5.4-5.2,10.3-10.7,14.5-16.6c10.2-14,17.1-30,20.8-48h-6.7c-1.6,7.2-3.7,14.1-6.4,20.6
				c-6.1,14.9-15.1,28-26.9,39.3c-2.2,2.1-4.5,4.2-6.9,6.1c-7.6,6.3-15.7,11.5-24.4,15.7l2,6.3c8.6-4.1,16.7-9.2,24.3-15.2
				C148.7,160.1,151.9,157.3,155,154.3z"/>
			<path class="st0" d="M102.9,57.2c0-13.3-4.3-24.1-12.8-32.2S70.8,12.8,57.9,12.8C45.3,12.8,34.7,16.9,26,25
				c-8.7,8.2-13.1,18.9-13.1,32.2S17.3,81.3,26,89.4c3.3,3.1,6.8,5.5,10.6,7.4v-7.1v-0.3c-2.1-1.3-4.1-2.9-6-4.6
				c-7.5-7-11.2-16.2-11.2-27.6s3.7-20.6,11.2-27.6c7.4-7,16.6-10.5,27.3-10.5c11.1,0,20.3,3.5,27.6,10.5s10.9,16.2,10.9,27.6
				s-3.6,20.6-10.9,27.6c-1.9,1.9-4,3.5-6.3,4.8v0.1V97c4-1.9,7.6-4.5,10.9-7.6C98.7,81.3,102.9,70.6,102.9,57.2z"/>
			<path class="st0" d="M90,57.2c0-9.5-3-17.1-9.1-23c-6.1-5.8-13.7-8.7-23-8.7c-9,0-16.6,2.9-22.8,8.7s-9.3,13.5-9.3,23
				s3.1,17.2,9.3,23c1.2,1.2,2.5,2.2,3.9,3.1h4h29.7h4.2c1.3-0.9,2.6-2,3.8-3.1C87,74.4,90,66.7,90,57.2z M76.3,75.5
				c-2.3,2.2-4.9,3.9-7.7,5c-3.2,1.3-6.7,2-10.6,2c-4.4,0-8.5-0.9-12.1-2.8c-2.2-1.1-4.2-2.5-6-4.2c-4.9-4.6-7.4-10.7-7.4-18.3
				s2.5-13.7,7.4-18.3c1.9-1.7,3.9-3.1,6-4.2c3.6-1.9,7.7-2.8,12.1-2.8c3.9,0,7.4,0.7,10.6,2c2.8,1.2,5.4,2.8,7.7,5
				c4.8,4.6,7.3,10.7,7.3,18.3l0,0l0,0C83.5,64.8,81.1,70.9,76.3,75.5z"/>
			<path d="M71.6,43.5c-3.6-3.5-8.2-5.2-13.7-5.2c-5.3,0-9.9,1.7-13.6,5.2c-3.7,3.5-5.5,8-5.5,13.7s1.8,10.2,5.5,13.7
				s8.2,5.2,13.6,5.2c5.5,0,10.1-1.7,13.7-5.2s5.4-8,5.4-13.7S75.2,47,71.6,43.5z"/>
			<path class="st0" d="M173.8,206.8h3.8l1.2-3.8l3.7-11.7c-6.4,5.7-13.1,10.8-20.1,15.4h11.4V206.8z"/>
			<path class="st0" d="M178.2,177.5c-12.8,12.2-26.9,22-42.4,29.3h14.1c11.8-6.7,22.8-14.9,33-24.7c1.3-1.2,2.5-2.5,3.8-3.7
				l4.9-15.3C187.4,168.1,183,172.9,178.2,177.5z"/>
			<path class="st0" d="M210.2,89.8c-5.5,31.2-19.2,57.4-41.3,78.4c-3.5,3.3-7,6.4-10.7,9.3c-2.3,1.8-4.6,3.6-7,5.3
				c-7.6,5.3-15.6,9.9-24.1,13.7l2,6.2c16.3-7.2,31.2-17.1,44.5-29.9c9.8-9.4,18-19.7,24.6-30.9l16.6-52.2L210.2,89.8L210.2,89.8z"
				/>
			<path class="st0" d="M139.5,141.9c-7.5,6.9-15.6,12.6-24.4,17.1l2,6.3c8.7-4.4,16.9-9.8,24.4-16.4L139.5,141.9z"/>
			<path class="st0" d="M137.5,134.8l-2.1-7.3c-1.2,1.2-2.4,2.4-3.6,3.6c-6.4,6.1-13.3,11.2-20.7,15.3l2,6.3
				c8.4-4.5,16.2-10.1,23.4-17C136.8,135.5,137.2,135.1,137.5,134.8z"/>
			<path class="st0" d="M133.4,120.2l-2.2-7.8c-2.6,3.3-5.4,6.5-8.5,9.5c-4.8,4.6-10,8.6-15.5,11.9l2,6.4
				c6.5-3.7,12.5-8.3,18.1-13.6C129.4,124.5,131.5,122.4,133.4,120.2z"/>
			<path class="st0" d="M128.8,104.3l-2.5-8.7c-3.4,6.3-7.7,11.9-13,17c-3.3,3.1-6.7,5.9-10.3,8.3l2.1,6.4
				c4.6-2.9,8.9-6.2,12.9-10.1C122.1,113.3,125.8,108.9,128.8,104.3z"/>
			<path class="st0" d="M122,89.8h-7.4c-2.8,5-6.3,9.5-10.5,13.6c-1.7,1.6-3.4,3.1-5.2,4.5l2.1,6.6c2.7-1.9,5.3-4.1,7.8-6.4
				C114.3,102.6,118.7,96.6,122,89.8z"/>
			<path class="st0" d="M106.9,89.8c6-9,9-19.9,9-32.6c0-17.2-5.5-31-16.5-41.5C88.5,5.3,74.6,0,57.9,0C41.7,0,28,5.3,16.8,15.7
				C5.6,26.2,0,40.1,0,57.2s5.6,31,16.8,41.5c5.9,5.5,12.5,9.6,19.8,12.2V104c-5.5-2.3-10.6-5.6-15.2-9.9
				c-10-9.3-14.9-21.6-14.9-36.9s5-27.5,14.9-36.9c9.9-9.3,22.1-14,36.5-14c14.8,0,27.1,4.7,36.9,14c9.7,9.3,14.6,21.6,14.6,36.9
				c0,13-3.6,23.9-10.6,32.6c-1.2,1.5-2.5,2.9-4,4.3c-0.1,0.1-0.2,0.2-0.3,0.2c-4.5,4.3-9.6,7.6-15.3,9.8v6.9
				c6.4-2.2,12.2-5.5,17.4-9.9c0.9-0.8,1.8-1.6,2.7-2.4C102.3,96,104.8,93,106.9,89.8z"/>
			<rect x="43.1" y="89.8" width="29.7" height="117"/>
		</g>
		<g>
			<g>
				<path d="M271.2,160v-7.5h9.8V97.3h-9.8v-7.5h27.4c9.2,0,16.4,2.3,21.4,7s7.6,11.9,7.6,21.6v13c0,9.8-2.5,17-7.6,21.6
					s-12.2,7-21.4,7H271.2z M289.5,152.4h9.1c6.8,0,12-1.7,15.4-5c3.5-3.3,5.2-8.5,5.2-15.5v-13.7c0-7.2-1.7-12.4-5.2-15.6
					c-3.5-3.3-8.6-4.9-15.4-4.9h-9.1V152.4z"/>
				<path d="M340.4,160v-49h7.7v6h1.4c0.9-2.1,2.2-3.7,4-4.7s4.2-1.5,7.1-1.5h5.8v7.2h-6.3c-3.5,0-6.4,1-8.6,3s-3.3,5-3.3,9.2V160
					H340.4z"/>
				<path d="M374.7,160c-1.9,0-3.6-0.6-4.9-1.9c-1.3-1.3-2-2.9-2-4.9s0.7-3.6,2-4.9c1.3-1.3,2.9-1.9,4.9-1.9s3.6,0.6,4.9,1.9
					c1.3,1.3,1.9,2.9,1.9,4.9s-0.6,3.6-1.9,4.9C378.4,159.4,376.7,160,374.7,160z"/>
				<path d="M421.3,160V89.8h8.4V160H421.3z"/>
				<path d="M464.2,161.4c-6.1,0-11.2-1.4-15.4-4.2c-4.2-2.8-6.7-7.3-7.6-13.3l7.5-1.7c0.5,3.2,1.5,5.7,3,7.6
					c1.5,1.8,3.3,3.1,5.5,3.9s4.5,1.2,7,1.2c3.7,0,6.6-0.7,8.7-2.2s3.2-3.4,3.2-5.9s-1-4.3-3.1-5.4c-2-1-4.8-1.9-8.4-2.6l-4.1-0.7
					c-3.1-0.5-6-1.4-8.6-2.5s-4.7-2.7-6.2-4.6c-1.5-1.9-2.3-4.4-2.3-7.3c0-4.4,1.7-7.9,5.1-10.3c3.4-2.5,7.9-3.7,13.5-3.7
					c5.5,0,10,1.3,13.5,3.8c3.4,2.5,5.7,6,6.7,10.6l-7.4,1.9c-0.6-3.5-2-6-4.3-7.5c-2.3-1.4-5.1-2.2-8.4-2.2s-6,0.6-7.9,1.9
					c-1.9,1.2-2.9,3.1-2.9,5.5c0,2.3,0.9,4.1,2.8,5.2c1.8,1.1,4.3,1.9,7.4,2.5l4.1,0.7c3.5,0.6,6.6,1.4,9.4,2.5c2.8,1,5,2.5,6.6,4.5
					c1.6,1.9,2.5,4.5,2.5,7.6c0,4.8-1.8,8.5-5.4,11.1C475,160.1,470.2,161.4,464.2,161.4z"/>
				<path d="M496.1,160v-49h7.7v6h1.4c0.9-2.1,2.2-3.7,4-4.7s4.2-1.5,7.1-1.5h5.8v7.2h-6.3c-3.5,0-6.4,1-8.6,3s-3.3,5-3.3,9.2V160
					H496.1z"/>
				<path d="M547.6,161.4c-3.4,0-6.5-0.6-9.3-1.8s-5-2.9-6.6-5.2s-2.4-5-2.4-8.3s0.8-6.1,2.4-8.3c1.6-2.2,3.8-3.8,6.6-4.9
					c2.8-1.1,5.9-1.7,9.4-1.7h16.5v-3.6c0-3.5-1-6.2-3.1-8.2c-2-2-5.1-3-9.1-3c-3.9,0-7,1-9.2,2.9s-3.7,4.5-4.5,7.7l-7.4-2.4
					c0.8-2.7,2.1-5.2,3.8-7.5c1.7-2.2,4.1-4,7-5.4s6.4-2.1,10.5-2.1c6.3,0,11.2,1.6,14.6,4.9c3.5,3.2,5.2,7.8,5.2,13.7v22.2
					c0,2,0.9,3,2.8,3h4.5v6.7h-6.9c-2.2,0-4-0.6-5.3-1.9c-1.3-1.2-2-2.9-2-5v-0.5H564c-0.7,1.3-1.7,2.6-3,4
					c-1.2,1.4-2.9,2.5-5.1,3.4C553.8,160.9,551,161.4,547.6,161.4z M548.5,154.6c4.7,0,8.5-1.4,11.4-4.2s4.4-6.7,4.4-11.7v-1.1H548
					c-3.1,0-5.7,0.7-7.8,2.1c-2,1.4-3.1,3.4-3.1,6.2c0,2.7,1.1,4.9,3.2,6.4C542.4,153.8,545.2,154.6,548.5,154.6z"/>
				<path d="M610.7,161.4c-4.9,0-9.3-1.1-13-3.2c-3.7-2.1-6.7-5.1-8.7-8.9c-2.1-3.8-3.1-8.2-3.1-13.2v-1.2c0-5.1,1-9.5,3.1-13.3
					s4.9-6.8,8.6-8.9c3.7-2.1,7.9-3.2,12.6-3.2c4.6,0,8.7,1,12.2,3s6.3,4.8,8.3,8.5s3,8,3,12.9v3.6h-40c0.2,5.3,1.9,9.4,5.1,12.4
					c3.2,3,7.2,4.5,12,4.5c4.2,0,7.5-1,9.7-2.9c2.3-1.9,4-4.2,5.2-6.9l6.8,3.3c-1,2.1-2.4,4.1-4.2,6.2c-1.8,2.1-4.1,3.8-6.9,5.2
					C618.7,160.7,615.1,161.4,610.7,161.4z M593.8,131h31.9c-0.3-4.5-1.8-8.1-4.7-10.6c-2.8-2.5-6.5-3.8-10.9-3.8
					c-4.5,0-8.2,1.3-11,3.8S594.5,126.5,593.8,131z"/>
				<path d="M646.3,160V89.8h7.9V160H646.3z"/>
				<path d="M712,160l-21.2-70.2h8.7l19.2,65.1h1.3l19.2-65.1h8.7L726.7,160H712z"/>
				<path d="M762.4,103.3c-1.7,0-3.2-0.6-4.4-1.7s-1.8-2.6-1.8-4.3c0-1.8,0.6-3.3,1.8-4.4s2.6-1.7,4.4-1.7c1.7,0,3.2,0.6,4.3,1.7
					s1.7,2.6,1.7,4.4c0,1.7-0.6,3.2-1.7,4.3C765.5,102.8,764.1,103.3,762.4,103.3z M758.4,160v-49h7.9v49H758.4z"/>
				<path d="M781.5,160V89.8h7.9V160H781.5z"/>
				<path d="M804.5,160V89.8h7.9V160H804.5z"/>
				<path d="M843,161.4c-3.4,0-6.5-0.6-9.3-1.8s-5-2.9-6.6-5.2s-2.4-5-2.4-8.3s0.8-6.1,2.4-8.3c1.6-2.2,3.8-3.8,6.6-4.9
					c2.8-1.1,5.9-1.7,9.4-1.7h16.5v-3.6c0-3.5-1-6.2-3.1-8.2c-2-2-5.1-3-9.1-3c-3.9,0-7,1-9.2,2.9s-3.7,4.5-4.5,7.7l-7.4-2.4
					c0.8-2.7,2.1-5.2,3.8-7.5c1.7-2.2,4.1-4,7-5.4s6.4-2.1,10.5-2.1c6.3,0,11.2,1.6,14.6,4.9c3.5,3.2,5.2,7.8,5.2,13.7v22.2
					c0,2,0.9,3,2.8,3h4.5v6.7h-6.9c-2.2,0-4-0.6-5.3-1.9c-1.3-1.2-2-2.9-2-5v-0.5h-1.2c-0.7,1.3-1.7,2.6-3,4
					c-1.2,1.4-2.9,2.5-5.1,3.4C849.2,160.9,846.4,161.4,843,161.4z M843.9,154.6c4.7,0,8.5-1.4,11.4-4.2s4.4-6.7,4.4-11.7v-1.1
					h-16.2c-3.1,0-5.7,0.7-7.8,2.1c-2,1.4-3.1,3.4-3.1,6.2c0,2.7,1.1,4.9,3.2,6.4C837.9,153.8,840.6,154.6,843.9,154.6z"/>
				<path d="M884.8,160v-49h7.7v6h1.4c0.9-2.1,2.2-3.7,4-4.7s4.2-1.5,7.1-1.5h5.8v7.2h-6.3c-3.5,0-6.4,1-8.6,3c-2.2,2-3.3,5-3.3,9.2
					V160H884.8z"/>
				<path d="M921.4,160v-49h7.7v6h1.4c0.9-2.1,2.2-3.7,4-4.7s4.2-1.5,7.1-1.5h5.8v7.2h-6.3c-3.5,0-6.4,1-8.6,3c-2.2,2-3.3,5-3.3,9.2
					V160H921.4z"/>
				<path d="M979.5,161.4c-4.9,0-9.3-1.1-13-3.2c-3.7-2.1-6.7-5.1-8.7-8.9c-2.1-3.8-3.1-8.2-3.1-13.2v-1.2c0-5.1,1-9.5,3.1-13.3
					s4.9-6.8,8.6-8.9c3.7-2.1,7.9-3.2,12.6-3.2c4.6,0,8.7,1,12.2,3s6.3,4.8,8.3,8.5s3,8,3,12.9v3.6h-40c0.2,5.3,1.9,9.4,5.1,12.4
					c3.2,3,7.2,4.5,12,4.5c4.2,0,7.5-1,9.7-2.9c2.3-1.9,4-4.2,5.2-6.9l6.8,3.3c-1,2.1-2.4,4.1-4.2,6.2c-1.8,2.1-4.1,3.8-6.9,5.2
					C987.6,160.7,984,161.4,979.5,161.4z M962.7,131h31.9c-0.3-4.5-1.8-8.1-4.7-10.6c-2.8-2.5-6.5-3.8-10.9-3.8
					c-4.5,0-8.2,1.3-11,3.8C965.1,122.9,963.4,126.5,962.7,131z"/>
				<path d="M1030.3,161.4c-3.4,0-6.5-0.6-9.3-1.8s-5-2.9-6.6-5.2s-2.4-5-2.4-8.3s0.8-6.1,2.4-8.3c1.6-2.2,3.8-3.8,6.6-4.9
					c2.8-1.1,5.9-1.7,9.4-1.7h16.5v-3.6c0-3.5-1-6.2-3.1-8.2c-2-2-5.1-3-9.1-3c-3.9,0-7,1-9.2,2.9c-2.2,1.9-3.7,4.5-4.5,7.7
					l-7.4-2.4c0.8-2.7,2.1-5.2,3.8-7.5c1.7-2.2,4.1-4,7-5.4c2.9-1.4,6.4-2.1,10.5-2.1c6.3,0,11.2,1.6,14.6,4.9
					c3.5,3.2,5.2,7.8,5.2,13.7v22.2c0,2,0.9,3,2.8,3h4.5v6.7h-6.9c-2.2,0-4-0.6-5.3-1.9c-1.3-1.2-2-2.9-2-5v-0.5h-1.2
					c-0.7,1.3-1.7,2.6-3,4c-1.2,1.4-2.9,2.5-5.1,3.4C1036.4,160.9,1033.7,161.4,1030.3,161.4z M1031.2,154.6c4.7,0,8.5-1.4,11.4-4.2
					s4.4-6.7,4.4-11.7v-1.1h-16.2c-3.1,0-5.7,0.7-7.8,2.1c-2,1.4-3.1,3.4-3.1,6.2c0,2.7,1.1,4.9,3.2,6.4
					C1025.1,153.8,1027.8,154.6,1031.2,154.6z"/>
				<path d="M1072.1,160V89.8h7.9V160H1072.1z"/>
			</g>
			<g>
				<path class="st1" d="M271.5,206.8v-23.4h9.2c1.5,0,2.7,0.2,3.8,0.7c1.1,0.5,2,1.2,2.6,2.1c0.6,0.9,1,2,1,3.4v0.3
					c0,1.6-0.4,2.8-1.1,3.7c-0.8,0.9-1.7,1.5-2.7,1.8v0.4c0.8,0,1.4,0.3,2,0.7c0.5,0.5,0.8,1.2,0.8,2.2v8H285V199
					c0-0.7-0.2-1.3-0.6-1.6c-0.4-0.4-1-0.6-1.8-0.6h-8.9v9.9h-2.2V206.8z M273.6,194.9h6.8c1.7,0,3.1-0.4,4-1.2s1.4-2,1.4-3.5V190
					c0-1.5-0.5-2.7-1.4-3.5s-2.3-1.2-4.1-1.2h-6.8v9.6H273.6z"/>
				<path class="st1" d="M303.2,206.8l7.7-23.4h3.8l7.7,23.4h-2.2l-2-6.2h-10.6l-2,6.2H303.2z M308.1,198.6h9.4l-4.5-14h-0.4
					L308.1,198.6z"/>
				<path class="st1" d="M337.6,206.8v-1.9h3.3v-19.5h-3.3v-1.9h8.9c3.1,0,5.4,0.8,7.1,2.3c1.7,1.6,2.6,4,2.6,7.2v4.3
					c0,3.3-0.9,5.7-2.6,7.2s-4.1,2.3-7.1,2.3L337.6,206.8L337.6,206.8z M343,204.9h3.4c2.5,0,4.3-0.6,5.6-1.8
					c1.3-1.2,1.9-3.1,1.9-5.7v-4.5c0-2.7-0.6-4.6-1.9-5.7c-1.3-1.2-3.2-1.8-5.6-1.8H343V204.9z"/>
				<path class="st1" d="M373.6,206.8v-23.4h2.1v23.4H373.6z"/>
				<path class="st1" d="M402.4,207.3c-2.7,0-4.9-0.8-6.6-2.4c-1.6-1.6-2.4-4-2.4-7.1v-5.3c0-3.1,0.8-5.5,2.4-7.1s3.8-2.4,6.6-2.4
					c2.7,0,4.9,0.8,6.6,2.4c1.6,1.6,2.4,4,2.4,7.1v5.3c0,3.1-0.8,5.5-2.4,7.1C407.3,206.5,405.1,207.3,402.4,207.3z M402.4,205.3
					c2.2,0,3.9-0.7,5.1-2s1.8-3.2,1.8-5.6v-5.4c0-2.4-0.6-4.2-1.8-5.6c-1.2-1.3-2.9-2-5.1-2s-3.8,0.7-5.1,2
					c-1.2,1.3-1.8,3.2-1.8,5.6v5.4c0,2.4,0.6,4.2,1.8,5.6C398.5,204.7,400.2,205.3,402.4,205.3z"/>
				<path class="st1" d="M429,206.8v-23.4h2.1v21.5h12.3v1.9H429z"/>
				<path class="st1" d="M467.6,207.3c-2.7,0-4.9-0.8-6.6-2.4c-1.6-1.6-2.4-4-2.4-7.1v-5.3c0-3.1,0.8-5.5,2.4-7.1s3.8-2.4,6.6-2.4
					s4.9,0.8,6.6,2.4c1.6,1.6,2.4,4,2.4,7.1v5.3c0,3.1-0.8,5.5-2.4,7.1C472.5,206.5,470.4,207.3,467.6,207.3z M467.6,205.3
					c2.2,0,3.9-0.7,5.1-2s1.8-3.2,1.8-5.6v-5.4c0-2.4-0.6-4.2-1.8-5.6c-1.2-1.3-2.9-2-5.1-2s-3.8,0.7-5.1,2
					c-1.2,1.3-1.8,3.2-1.8,5.6v5.4c0,2.4,0.6,4.2,1.8,5.6C463.8,204.7,465.4,205.3,467.6,205.3z"/>
				<path class="st1" d="M502.4,207.3c-1.8,0-3.3-0.4-4.7-1.1c-1.3-0.7-2.4-1.8-3.1-3.2s-1.1-3.2-1.1-5.2v-5.3
					c0-3.1,0.8-5.5,2.5-7.1c1.6-1.6,3.8-2.4,6.6-2.4c2.7,0,4.8,0.8,6.2,2.3s2.1,3.5,2.1,6.1v0.2h-2.1v-0.2c0-1.2-0.2-2.3-0.6-3.3
					c-0.4-0.9-1.1-1.7-2-2.2s-2.1-0.8-3.5-0.8c-2.2,0-3.9,0.7-5.1,2s-1.8,3.2-1.8,5.6v5.4c0,2.4,0.6,4.2,1.8,5.6
					c1.2,1.3,2.9,2,5.1,2c2.1,0,3.7-0.6,4.7-1.8s1.5-2.9,1.5-5v-0.7H501V196h9.8v10.8h-1.9v-2.6h-0.4c-0.3,0.5-0.6,1-1.1,1.5
					s-1.1,0.9-1.9,1.2C504.6,207.1,503.6,207.3,502.4,207.3z"/>
				<path class="st1" d="M528.4,181.4l2.2-3.9h2.6l-2.7,3.9H528.4z M528.9,206.8v-23.4h2.1v23.4H528.9z"/>
				<path class="st1" d="M547.5,206.8l7.7-23.4h3.8l7.7,23.4h-2.2l-2-6.2h-10.6l-2,6.2H547.5z M552.4,198.6h9.4l-4.5-14h-0.4
					L552.4,198.6z"/>
				<path class="st1" d="M603.9,206.8v-23.4h2.1v23.4H603.9z"/>
				<path class="st1" d="M624.4,206.8v-23.4h4.2l9.6,22.2h0.4v-22.2h2.1v23.4h-4.2l-9.6-22.2h-0.4v22.2H624.4z"/>
				<path class="st1" d="M665,206.8v-21.5h-7.8v-1.9H675v1.9h-7.8v21.5H665z"/>
				<path class="st1" d="M691.4,206.8v-23.4h14.2v1.9h-12v8.8h11.1v1.9h-11.1v8.8h12.1v1.9h-14.3V206.8z"/>
				<path class="st1" d="M723,206.8v-23.4h9.2c1.5,0,2.7,0.2,3.8,0.7s2,1.2,2.6,2.1c0.6,0.9,1,2,1,3.4v0.3c0,1.6-0.4,2.8-1.1,3.7
					c-0.8,0.9-1.7,1.5-2.7,1.8v0.4c0.8,0,1.4,0.3,2,0.7c0.5,0.5,0.8,1.2,0.8,2.2v8h-2.1V199c0-0.7-0.2-1.3-0.6-1.6
					c-0.4-0.4-1-0.6-1.8-0.6h-8.9v9.9H723V206.8z M725.1,194.9h6.8c1.7,0,3.1-0.4,4-1.2s1.4-2,1.4-3.5V190c0-1.5-0.5-2.7-1.4-3.5
					s-2.3-1.2-4.1-1.2H725L725.1,194.9L725.1,194.9z"/>
				<path class="st1" d="M761.9,206.8l-7.5-23.4h2.2l7,22.2h0.4l7-22.2h2.2l-7.5,23.4H761.9z"/>
				<path class="st1" d="M789.7,206.8v-23.4h14.2v1.9h-12v8.8H803v1.9h-11.1v8.8H804v1.9h-14.3V206.8z"/>
				<path class="st1" d="M821.3,206.8v-23.4h4.3l9.6,22.2h0.4v-22.2h2.1v23.4h-4.3l-9.6-22.2h-0.4v22.2H821.3z"/>
				<path class="st1" d="M864.3,207.3c-2.7,0-4.9-0.8-6.6-2.4c-1.6-1.6-2.5-4-2.5-7.1v-5.3c0-3.1,0.8-5.5,2.5-7.1
					c1.6-1.6,3.8-2.4,6.6-2.4c2.7,0,4.8,0.8,6.2,2.3s2.2,3.6,2.2,6.2v0.2h-2.1v-0.2c0-1.9-0.5-3.5-1.5-4.7s-2.6-1.8-4.7-1.8
					c-2.2,0-3.9,0.7-5.1,2c-1.2,1.3-1.8,3.2-1.8,5.6v5.4c0,2.4,0.6,4.2,1.8,5.6c1.2,1.3,2.9,2,5.1,2c2.1,0,3.7-0.6,4.7-1.8
					s1.5-2.8,1.5-4.7v-0.5h2.1v0.4c0,2.6-0.7,4.7-2.2,6.2C869.1,206.5,867.1,207.3,864.3,207.3z"/>
				<path class="st1" d="M890.1,206.8v-23.4h2.1v23.4H890.1z"/>
				<path class="st1" d="M918.9,207.3c-2.7,0-4.9-0.8-6.6-2.4c-1.6-1.6-2.4-4-2.4-7.1v-5.3c0-3.1,0.8-5.5,2.4-7.1
					c1.6-1.6,3.8-2.4,6.6-2.4s4.9,0.8,6.6,2.4c1.6,1.6,2.4,4,2.4,7.1v5.3c0,3.1-0.8,5.5-2.4,7.1
					C923.8,206.5,921.6,207.3,918.9,207.3z M918.9,205.3c2.2,0,3.9-0.7,5.1-2c1.2-1.3,1.8-3.2,1.8-5.6v-5.4c0-2.4-0.6-4.2-1.8-5.6
					c-1.2-1.3-2.9-2-5.1-2c-2.2,0-3.8,0.7-5.1,2c-1.2,1.3-1.8,3.2-1.8,5.6v5.4c0,2.4,0.6,4.2,1.8,5.6
					C915,204.7,916.7,205.3,918.9,205.3z"/>
				<path class="st1" d="M945.5,206.8v-23.4h4.3l9.6,22.2h0.4v-22.2h2.1v23.4h-4.3l-9.6-22.2h-0.4v22.2H945.5z"/>
				<path class="st1" d="M980.3,206.8v-23.4h2.1v23.4H980.3z"/>
				<path class="st1" d="M1008.5,207.3c-1.7,0-3.2-0.3-4.5-0.9c-1.3-0.6-2.4-1.5-3.1-2.7s-1.1-2.8-1.1-4.6v-0.6h2.1v0.6
					c0,2.2,0.6,3.8,1.9,4.8c1.2,1,2.8,1.6,4.7,1.6s3.4-0.5,4.5-1.4c1-0.9,1.6-2.1,1.6-3.5c0-0.9-0.2-1.7-0.7-2.3s-1.1-1-1.9-1.4
					c-0.8-0.3-1.8-0.7-2.8-0.9l-2.1-0.5c-1.3-0.3-2.4-0.8-3.4-1.3s-1.8-1.2-2.4-2c-0.6-0.8-0.9-1.9-0.9-3.1c0-1.3,0.3-2.4,1-3.3
					c0.7-0.9,1.6-1.7,2.7-2.2c1.2-0.5,2.5-0.8,4-0.8s2.9,0.3,4.2,0.8c1.2,0.5,2.2,1.3,2.9,2.4c0.7,1,1.1,2.3,1.1,3.9v1.6h-2.1V190
					c0-1.2-0.3-2.2-0.8-3s-1.3-1.3-2.2-1.7s-1.9-0.5-3.1-0.5c-1.6,0-3,0.4-4,1.1c-1.1,0.7-1.6,1.8-1.6,3.2c0,0.9,0.2,1.7,0.7,2.2
					c0.4,0.6,1,1,1.8,1.3s1.7,0.6,2.8,0.9l2.1,0.5c1.2,0.3,2.4,0.7,3.4,1.2s1.9,1.1,2.5,2c0.6,0.8,0.9,1.9,0.9,3.3
					c0,1.4-0.3,2.5-1,3.5s-1.6,1.8-2.9,2.3C1011.6,207,1010.1,207.3,1008.5,207.3z"/>
				<path class="st1" d="M1038.8,206.8v-21.5h-7.8v-1.9h17.8v1.9h-7.8v21.5H1038.8z"/>
				<path class="st1" d="M1060.6,206.8l7.7-23.4h3.8l7.7,23.4h-2.2l-2-6.2H1065l-2,6.2H1060.6z M1065.5,198.6h9.4l-4.5-14h-0.4
					L1065.5,198.6z"/>
			</g>
		</g>
	</g>
</g>
</svg>
