<?xml version="1.0" encoding="utf-8"?>
<!-- Generator: Adobe Illustrator 27.8.1, SVG Export Plug-In . SVG Version: 6.00 Build 0)  -->
<svg version="1.1" id="Capa_1" xmlns="http://www.w3.org/2000/svg" xmlns:xlink="http://www.w3.org/1999/xlink" x="0px" y="0px"
	 viewBox="0 0 300 300" style="enable-background:new 0 0 300 300;" xml:space="preserve">
<style type="text/css">
	.st0{fill:#4E87A0;}
</style>
<g>
	<g>
		<path class="st0" d="M225.5,237.8c1.3-1.2,2.7-2.5,4-3.7c29.1-27.8,47.4-62.2,54.9-103.1h-9.2c-6.7,34.6-21.6,64.3-44.6,88.9
			c-2.4,2.6-4.9,5.2-7.6,7.7c-5.5,5.3-11.2,10.1-17.2,14.6c-10.6,8-21.9,14.9-33.9,20.4l2.8,8.7c11.9-5.4,23.1-12,33.8-19.8
			C214.3,247.3,220,242.7,225.5,237.8z"/>
		<path class="st0" d="M216.5,221.1c7.6-7.2,14.3-15,20.3-23.2c14.2-19.6,23.9-41.9,29.1-67h-9.3c-2.2,10.1-5.2,19.7-8.9,28.8
			c-8.5,20.7-21.1,39.1-37.6,54.9c-3.1,3-6.3,5.9-9.6,8.6c-10.6,8.8-21.9,16.1-34,22l2.8,8.7c12-5.7,23.4-12.8,34-21.2
			C207.7,229.1,212.2,225.2,216.5,221.1z"/>
		<path class="st0" d="M143.7,85.5c0-18.6-6-33.6-17.8-45C114,29.2,99,23.5,80.9,23.5c-17.6,0-32.5,5.7-44.6,17.1
			c-12.2,11.4-18.2,26.4-18.2,45s6.1,33.6,18.2,45c4.6,4.3,9.5,7.7,14.8,10.4V131v-0.5c-2.9-1.8-5.8-4-8.4-6.5
			c-10.4-9.7-15.6-22.6-15.6-38.5c0-15.9,5.2-28.8,15.6-38.5c10.4-9.7,23.1-14.6,38.2-14.6c15.5,0,28.3,4.9,38.5,14.6
			c10.2,9.7,15.3,22.6,15.3,38.5c0,15.9-5.1,28.8-15.3,38.5c-2.7,2.6-5.6,4.8-8.7,6.7v0.2v10.2c5.5-2.7,10.6-6.2,15.2-10.6
			C137.8,119.1,143.7,104.1,143.7,85.5z"/>
		<path class="st0" d="M125.7,85.5c0-13.3-4.2-23.9-12.7-32.1c-8.5-8.1-19.2-12.2-32.1-12.2c-12.5,0-23.1,4.1-31.8,12.2
			c-8.7,8.1-13,18.8-13,32.1c0,13.3,4.3,24,13,32.1c1.7,1.6,3.5,3.1,5.4,4.4h5.6h41.5h5.9c1.9-1.3,3.7-2.8,5.4-4.4
			C121.4,109.5,125.7,98.8,125.7,85.5z M106.5,111.1c-3.2,3.1-6.8,5.4-10.8,7c-4.5,1.9-9.4,2.8-14.8,2.8c-6.2,0-11.9-1.3-16.9-3.9
			c-3-1.5-5.8-3.5-8.4-5.9c-6.9-6.5-10.4-15-10.4-25.6s3.5-19.1,10.4-25.6c2.6-2.4,5.4-4.4,8.4-5.9c5.1-2.6,10.7-3.9,16.9-3.9
			c5.4,0,10.4,1,14.9,2.8c4,1.6,7.5,3.9,10.7,7c6.8,6.5,10.1,15,10.1,25.6v0c0,0,0,0,0,0C116.6,96.1,113.3,104.6,106.5,111.1z"/>
		<path d="M100,66.4c-5.1-4.8-11.4-7.2-19.1-7.2c-7.5,0-13.8,2.4-18.9,7.2c-5.2,4.8-7.7,11.2-7.7,19.1s2.6,14.3,7.7,19.1
			c5.2,4.8,11.5,7.2,18.9,7.2c7.7,0,14.1-2.4,19.1-7.2c5.1-4.8,7.6-11.2,7.6-19.1S105.1,71.2,100,66.4z"/>
		<path class="st0" d="M242.7,294.4h5.3l1.7-5.3l5.2-16.3c-9,8-18.3,15.1-28.1,21.6H242.7z"/>
		<path class="st0" d="M248.9,253.5c-17.9,17.1-37.6,30.7-59.2,40.9h19.6c16.5-9.4,31.8-20.9,46-34.5c1.8-1.7,3.5-3.4,5.2-5.2
			l6.8-21.4C261.7,240.4,255.5,247.1,248.9,253.5z"/>
		<path class="st0" d="M293.6,131c-7.7,43.6-26.9,80.1-57.7,109.5c-4.8,4.6-9.8,9-15,13c-3.2,2.6-6.5,5-9.8,7.3
			c-10.6,7.5-21.8,13.8-33.7,19.1l2.8,8.7c22.8-10,43.5-23.9,62.1-41.7c13.7-13.1,25.1-27.5,34.4-43.2L300,131H293.6z"/>
		<path class="st0" d="M194.9,203.8c-10.5,9.6-21.8,17.6-34.1,23.9l2.8,8.8c12.2-6.1,23.5-13.7,34.1-22.9L194.9,203.8z"/>
		<path class="st0" d="M192,193.8l-2.9-10.1c-1.6,1.7-3.3,3.4-5,5c-8.9,8.5-18.5,15.6-28.9,21.3l2.8,8.8
			c11.8-6.3,22.6-14.2,32.6-23.7C191.1,194.8,191.6,194.3,192,193.8z"/>
		<path class="st0" d="M186.2,173.4l-3.1-10.9c-3.6,4.7-7.5,9.1-11.9,13.3c-6.7,6.4-13.9,12-21.6,16.6l2.9,9
			c9.1-5.2,17.5-11.5,25.3-19C180.8,179.5,183.6,176.5,186.2,173.4z"/>
		<path class="st0" d="M179.9,151.2l-3.4-12.1c-4.7,8.7-10.8,16.6-18.2,23.7c-4.5,4.3-9.4,8.2-14.4,11.6l2.9,9
			c6.4-4,12.4-8.7,18-14.1C170.6,163.8,175.6,157.7,179.9,151.2z"/>
		<path class="st0" d="M170.3,131H160c-3.9,6.9-8.8,13.3-14.7,18.9c-2.3,2.2-4.8,4.3-7.3,6.3l2.9,9.2c3.8-2.7,7.4-5.7,10.8-9
			C159.6,148.9,165.8,140.4,170.3,131z"/>
		<path class="st0" d="M149.3,131c8.3-12.6,12.5-27.8,12.5-45.5c0-24-7.7-43.3-23-57.9c-15.3-14.6-34.6-22-57.9-22
			c-22.6,0-41.8,7.3-57.4,22C7.8,42.2,0,61.5,0,85.5s7.8,43.3,23.5,57.9c8.2,7.7,17.5,13.4,27.6,17.1v-9.7
			c-7.7-3.2-14.8-7.9-21.2-13.9C16,124,9,106.8,9,85.5C9,64.2,16,47.1,29.9,34.1c13.9-13,30.9-19.5,51-19.5
			c20.7,0,37.8,6.5,51.5,19.5c13.6,13,20.4,30.2,20.4,51.5c0,18.2-5,33.3-14.9,45.5c-1.7,2.1-3.6,4.1-5.5,6
			c-0.1,0.1-0.2,0.2-0.4,0.3c-6.3,6-13.4,10.6-21.3,13.8v9.6c8.9-3.1,17.1-7.7,24.3-13.9c1.3-1.1,2.6-2.2,3.8-3.4
			C142.9,139.6,146.3,135.5,149.3,131z"/>
		<rect x="60.2" y="131" width="41.5" height="163.4"/>
	</g>
</g>
</svg>
